<svg viewBox="0 0 4096 2374" xmlns="http://www.w3.org/2000/svg" xmlns:xlink="http://www.w3.org/1999/xlink">
<image xlink:href="https://uploads-ssl.webflow.com/60331746c0be7f4c7cac41d6/60669230f59ad70ff5fe9198_Pangea-Locations-BG.jpg" />
<path class="loc mfg" data-tooltip-content="#location-hq" d="M781.133 1151.05C781.133 1151.05 777.822 1155.74 769.818 1155.74C761.815 1155.74 758.503 1151.05 758.503 1151.05L754.088 1154.63C754.088 1154.63 757.4 1159.88 757.4 1165.67C757.4 1173.68 754.088 1176.71 754.088 1176.71L758.503 1180.3C758.503 1180.3 761.815 1175.88 769.818 1175.88C777.822 1175.88 781.133 1180.3 781.133 1180.3L785.549 1176.71C785.549 1176.71 782.237 1173.4 782.237 1165.67C782.237 1159.6 785.549 1154.63 785.549 1154.63L781.133 1151.05Z" />
<path class="loc mfg" data-tooltip-content="#location-jiaxing" d="M812.593 1102.75C812.593 1102.75 809.282 1107.44 801.278 1107.44C793.275 1107.44 789.963 1102.75 789.963 1102.75L785.548 1106.34C785.548 1106.34 788.86 1111.58 788.86 1117.38C788.86 1125.38 785.548 1128.42 785.548 1128.42L789.963 1132C789.963 1132 793.275 1127.59 801.278 1127.59C809.282 1127.59 812.593 1132 812.593 1132L817.009 1128.42C817.009 1128.42 813.697 1125.1 813.697 1117.38C813.697 1111.31 817.009 1106.34 817.009 1106.34L812.593 1102.75Z" />
<path class="loc mfg" data-tooltip-content="#location-jiaxing" d="M831.913 1058.87C831.913 1058.87 828.601 1063.56 820.598 1063.56C812.594 1063.56 809.283 1058.87 809.283 1058.87L804.867 1062.46C804.867 1062.46 808.179 1067.7 808.179 1073.5C808.179 1081.5 804.867 1084.54 804.867 1084.54L809.283 1088.12C809.283 1088.12 812.594 1083.71 820.598 1083.71C828.601 1083.71 831.913 1088.12 831.913 1088.12L836.328 1084.54C836.328 1084.54 833.016 1081.22 833.016 1073.5C833.016 1067.42 836.328 1062.46 836.328 1062.46L831.913 1058.87Z" />
<path class="loc mfg" data-tooltip-content="#location-jiaxing" d="M2147.47 765.787C2147.47 765.787 2144.16 770.479 2136.16 770.479C2128.16 770.479 2124.84 765.787 2124.84 765.787L2120.43 769.375C2120.43 769.375 2123.74 774.618 2123.74 780.414C2123.74 788.417 2120.43 791.453 2120.43 791.453L2124.84 795.04C2124.84 795.04 2128.16 790.625 2136.16 790.625C2144.16 790.625 2147.47 795.04 2147.47 795.04L2151.89 791.453C2151.89 791.453 2148.58 788.141 2148.58 780.414C2148.58 774.342 2151.89 769.375 2151.89 769.375L2147.47 765.787Z" />
<path class="loc sales" data-tooltip-content="#location-jiaxing" d="M3302.7 1011.68C3302.7 1011.68 3299.39 1016.37 3291.38 1016.37C3283.38 1016.37 3280.07 1011.68 3280.07 1011.68L3275.65 1015.27C3275.65 1015.27 3278.97 1020.51 3278.97 1026.31C3278.97 1034.31 3275.65 1037.34 3275.65 1037.34L3280.07 1040.93C3280.07 1040.93 3283.38 1036.52 3291.38 1036.52C3299.39 1036.52 3302.7 1040.93 3302.7 1040.93L3307.12 1037.34C3307.12 1037.34 3303.8 1034.03 3303.8 1026.31C3303.8 1020.23 3307.12 1015.27 3307.12 1015.27L3302.7 1011.68Z" />
<path class="loc sales" data-tooltip-content="#location-jiaxing" d="M3242.26 1043.14C3242.26 1043.14 3238.95 1047.83 3230.94 1047.83C3222.94 1047.83 3219.63 1043.14 3219.63 1043.14L3215.21 1046.73C3215.21 1046.73 3218.53 1051.97 3218.53 1057.77C3218.53 1065.77 3215.21 1068.81 3215.21 1068.81L3219.63 1072.39C3219.63 1072.39 3222.94 1067.98 3230.94 1067.98C3238.95 1067.98 3242.26 1072.39 3242.26 1072.39L3246.67 1068.81C3246.67 1068.81 3243.36 1065.49 3243.36 1057.77C3243.36 1051.7 3246.67 1046.73 3246.67 1046.73L3242.26 1043.14Z" />
<path class="loc sales" data-tooltip-content="#location-jiaxing" d="M3392.11 926.679C3392.11 926.679 3388.8 931.37 3380.8 931.37C3372.79 931.37 3369.48 926.679 3369.48 926.679L3365.07 930.266C3365.07 930.266 3368.38 935.51 3368.38 941.305C3368.38 949.308 3365.07 952.344 3365.07 952.344L3369.48 955.932C3369.48 955.932 3372.79 951.516 3380.8 951.516C3388.8 951.516 3392.11 955.932 3392.11 955.932L3396.53 952.344C3396.53 952.344 3393.22 949.033 3393.22 941.305C3393.22 935.234 3396.53 930.266 3396.53 930.266L3392.11 926.679Z" />
<path class="loc sales" data-tooltip-content="#location-jiaxing" d="M3532.58 941.306C3532.58 941.306 3529.27 945.998 3521.27 945.998C3513.27 945.998 3509.95 941.306 3509.95 941.306L3505.54 944.894C3505.54 944.894 3508.85 950.137 3508.85 955.933C3508.85 963.936 3505.54 966.972 3505.54 966.972L3509.95 970.559C3509.95 970.559 3513.27 966.144 3521.27 966.144C3529.27 966.144 3532.58 970.559 3532.58 970.559L3537 966.972C3537 966.972 3533.69 963.66 3533.69 955.933C3533.69 949.861 3537 944.894 3537 944.894L3532.58 941.306Z" />
<path class="loc sales" data-tooltip-content="#location-jiaxing" d="M3494.22 947.653C3494.22 947.653 3490.91 952.344 3482.91 952.344C3474.9 952.344 3471.59 947.653 3471.59 947.653L3467.18 951.24C3467.18 951.24 3470.49 956.484 3470.49 962.279C3470.49 970.283 3467.18 973.318 3467.18 973.318L3471.59 976.906C3471.59 976.906 3474.9 972.49 3482.91 972.49C3490.91 972.49 3494.22 976.906 3494.22 976.906L3498.64 973.318C3498.64 973.318 3495.33 970.007 3495.33 962.279C3495.33 956.208 3498.64 951.24 3498.64 951.24L3494.22 947.653Z" />
<path class="loc sales" data-tooltip-content="#location-jiaxing" d="M3455.86 955.932C3455.86 955.932 3452.55 960.624 3444.55 960.624C3436.55 960.624 3433.23 955.932 3433.23 955.932L3428.82 959.52C3428.82 959.52 3432.13 964.763 3432.13 970.559C3432.13 978.562 3428.82 981.598 3428.82 981.598L3433.23 985.185C3433.23 985.185 3436.55 980.77 3444.55 980.77C3452.55 980.77 3455.86 985.185 3455.86 985.185L3460.28 981.598C3460.28 981.598 3456.97 978.286 3456.97 970.559C3456.97 964.487 3460.28 959.52 3460.28 959.52L3455.86 955.932Z" />
<path class="loc mfg" data-tooltip-content="#location-jiaxing" d="M2023.01 713.076C2023.01 713.076 2019.7 717.768 2011.7 717.768C2003.69 717.768 2000.38 713.076 2000.38 713.076L1995.97 716.664C1995.97 716.664 1999.28 721.907 1999.28 727.703C1999.28 735.706 1995.97 738.742 1995.97 738.742L2000.38 742.329C2000.38 742.329 2003.69 737.914 2011.7 737.914C2019.7 737.914 2023.01 742.329 2023.01 742.329L2027.43 738.742C2027.43 738.742 2024.12 735.43 2024.12 727.703C2024.12 721.631 2027.43 716.664 2027.43 716.664L2023.01 713.076Z" />
<path class="loc mfg" data-tooltip-content="#location-jiaxing" d="M1000.26 842.783C1000.26 842.783 996.945 847.475 988.941 847.475C980.938 847.475 977.627 842.783 977.627 842.783L973.211 846.371C973.211 846.371 976.523 851.614 976.523 857.41C976.523 865.413 973.211 868.449 973.211 868.449L977.627 872.036C977.627 872.036 980.938 867.621 988.941 867.621C996.945 867.621 1000.26 872.036 1000.26 872.036L1004.67 868.449C1004.67 868.449 1001.36 865.137 1001.36 857.41C1001.36 851.338 1004.67 846.371 1004.67 846.371L1000.26 842.783Z" />
</svg>